<svg width="31" height="39" viewBox="0 0 31 39" fill="none" xmlns="http://www.w3.org/2000/svg">
<g clip-path="url(#clip0_1_1317)">
<rect width="31" height="39" rx="7" fill="white"/>
<path d="M7.23999 26L11.72 14.704H13.992L18.424 26H15.768L12.376 16.624H13.288L9.84799 26H7.23999ZM9.78399 23.952V21.904H15.944V23.952H9.78399Z" fill="black"/>
<path d="M19.6192 26V14.704H22.1312V26H19.6192Z" fill="black"/>
<path d="M19.2563 10.8978L20.1687 9.82667L19.8357 10.8553L20.9945 10.7702L19.5019 12.3233L20.083 11.402L19.2563 10.8978Z" fill="black"/>
<path d="M7.06791 29.4254L6.15551 30.4966L6.48851 29.468L5.32969 29.553L6.82233 28L6.24126 28.9213L7.06791 29.4254Z" fill="black"/>
<path d="M17.8951 9.87301L18.8536 7.55932L18.674 9.15248L20.2318 7.71142L18.6105 11.2625L19.1571 9.50824L17.8951 9.87301Z" fill="black"/>
<path d="M8.42916 30.4502L7.47064 32.7639L7.65025 31.1708L6.09243 32.6118L7.71371 29.0607L7.1671 30.815L8.42916 30.4502Z" fill="black"/>
<path d="M13.0565 9.07364L13.2168 7.67573L13.5138 8.7153L14.4284 7.9986L14.0551 10.1201L14.0239 9.03129L13.0565 9.07364Z" fill="black"/>
<path d="M13.2679 31.2498L13.1077 32.6478L12.8106 31.6082L11.8961 32.3249L12.2693 30.2034L12.3006 31.2922L13.2679 31.2498Z" fill="black"/>
<path d="M11.3551 8.98182L10.8609 6.52669L11.6 7.9494L12.0898 5.88457L12.7237 9.73645L12.1994 7.97537L11.3551 8.98182Z" fill="black"/>
<path d="M14.9691 31.3417L15.4634 33.7968L14.7242 32.3741L14.2344 34.4389L13.6005 30.587L14.1248 32.3481L14.9691 31.3417Z" fill="black"/>
</g>
<defs>
<clipPath id="clip0_1_1317">
<rect width="31" height="39" rx="7" fill="white"/>
</clipPath>
</defs>
</svg>
