<svg width="31" height="39" viewBox="0 0 31 39" fill="none" xmlns="http://www.w3.org/2000/svg">
<g clip-path="url(#clip0_1_1293)">
<rect x="0.5" width="30" height="39" rx="7" fill="white"/>
<path d="M9.00789 21.888V19.936H11.4399C11.7492 19.936 12.0319 19.872 12.2879 19.744C12.5439 19.616 12.7466 19.4293 12.8959 19.184C13.0452 18.9386 13.1199 18.64 13.1199 18.288C13.1199 17.9466 13.0452 17.6533 12.8959 17.408C12.7466 17.1626 12.5439 16.976 12.2879 16.848C12.0319 16.72 11.7492 16.656 11.4399 16.656H9.00789V14.704H11.8079C12.5226 14.704 13.1679 14.848 13.7439 15.136C14.3199 15.424 14.7732 15.84 15.1039 16.384C15.4452 16.9173 15.6159 17.552 15.6159 18.288C15.6159 19.024 15.4452 19.664 15.1039 20.208C14.7732 20.7413 14.3199 21.1573 13.7439 21.456C13.1679 21.744 12.5226 21.888 11.8079 21.888H9.00789ZM7.08789 26V14.704H9.59989V26H7.08789Z" fill="black"/>
<path d="M20.5268 26.176C19.5988 26.176 18.7988 26.0266 18.1268 25.728C17.4654 25.4186 16.8574 24.9546 16.3028 24.336L17.9348 22.72C18.2974 23.136 18.6974 23.4613 19.1348 23.696C19.5828 23.92 20.1001 24.032 20.6868 24.032C21.2201 24.032 21.6308 23.936 21.9188 23.744C22.2174 23.552 22.3668 23.2853 22.3668 22.944C22.3668 22.6346 22.2708 22.384 22.0788 22.192C21.8868 22 21.6308 21.8346 21.3108 21.696C21.0014 21.5573 20.6548 21.424 20.2708 21.296C19.8974 21.168 19.5241 21.024 19.1508 20.864C18.7774 20.6933 18.4308 20.4853 18.1108 20.24C17.8014 19.984 17.5508 19.6693 17.3588 19.296C17.1668 18.912 17.0708 18.432 17.0708 17.856C17.0708 17.1626 17.2361 16.5653 17.5668 16.064C17.9081 15.5626 18.3774 15.184 18.9748 14.928C19.5721 14.6613 20.2601 14.528 21.0388 14.528C21.8281 14.528 22.5481 14.6666 23.1988 14.944C23.8601 15.2213 24.4041 15.6 24.8308 16.08L23.1988 17.696C22.8574 17.344 22.5108 17.0826 22.1588 16.912C21.8174 16.7413 21.4281 16.656 20.9908 16.656C20.5534 16.656 20.2068 16.7413 19.9508 16.912C19.6948 17.072 19.5668 17.3066 19.5668 17.616C19.5668 17.904 19.6628 18.1386 19.8548 18.32C20.0468 18.4906 20.2974 18.64 20.6068 18.768C20.9268 18.896 21.2734 19.024 21.6468 19.152C22.0308 19.28 22.4094 19.4293 22.7828 19.6C23.1561 19.7706 23.4974 19.9893 23.8068 20.256C24.1268 20.512 24.3828 20.8426 24.5748 21.248C24.7668 21.6426 24.8628 22.1333 24.8628 22.72C24.8628 23.7973 24.4788 24.6453 23.7108 25.264C22.9428 25.872 21.8814 26.176 20.5268 26.176Z" fill="black"/>
<path d="M6.17356 10.6899C4.87755 9.86435 3.53303 8.87944 3.90847 6.67484C4.21109 4.89782 5.7374 9.25456 6.17356 10.6899Z" fill="black"/>
<path d="M23.4944 28.4112C24.7904 29.2367 26.1349 30.2216 25.7595 32.4262C25.4569 34.2033 23.9306 29.8465 23.4944 28.4112Z" fill="black"/>
<path d="M7.00029 9.84082C7.41208 9.42363 7.82836 8.94303 7.50129 8.15507C7.23766 7.51993 7.04046 9.26996 7.00029 9.84082Z" fill="black"/>
<path d="M22.6677 29.2603C22.2559 29.6774 21.8396 30.158 22.1667 30.946C22.4303 31.5811 22.6275 29.8311 22.6677 29.2603Z" fill="black"/>
<path d="M6.17356 10.6899C4.87755 9.86435 3.53303 8.87944 3.90847 6.67484C4.21109 4.89782 5.7374 9.25456 6.17356 10.6899Z" fill="black"/>
<path d="M23.4944 28.4112C24.7904 29.2367 26.1349 30.2216 25.7595 32.4262C25.4569 34.2033 23.9306 29.8465 23.4944 28.4112Z" fill="black"/>
<path d="M7.00029 9.84082C7.41208 9.42363 7.82836 8.94303 7.50129 8.15507C7.23766 7.51993 7.04046 9.26996 7.00029 9.84082Z" fill="black"/>
<path d="M22.6677 29.2603C22.2559 29.6774 21.8396 30.158 22.1667 30.946C22.4303 31.5811 22.6275 29.8311 22.6677 29.2603Z" fill="black"/>
<path d="M10.5412 7.92782C9.69462 6.64545 8.8688 5.19775 10.1109 3.33806C11.112 1.83905 10.7284 6.43944 10.5412 7.92782Z" fill="black"/>
<path d="M19.1266 31.1733C19.9731 32.4556 20.7989 33.9033 19.5569 35.763C18.5557 37.262 18.9393 32.6616 19.1266 31.1733Z" fill="black"/>
<path d="M11.6422 7.48989C12.1884 7.27695 12.7645 7.00797 12.7873 6.15513C12.8057 5.4677 11.9118 6.98506 11.6422 7.48989Z" fill="black"/>
<path d="M18.0255 31.6112C17.4793 31.8241 16.9032 32.0931 16.8804 32.9459C16.862 33.6334 17.7559 32.116 18.0255 31.6112Z" fill="black"/>
</g>
<defs>
<clipPath id="clip0_1_1293">
<rect x="0.5" width="30" height="39" rx="7" fill="white"/>
</clipPath>
</defs>
</svg>
