<svg width="31" height="39" viewBox="0 0 31 39" fill="none" xmlns="http://www.w3.org/2000/svg">
<rect width="31" height="39" rx="7" fill="white"/>
<path d="M6.34 22.63C6.94 22.41 7.56 22.3 8.22 22.3C9.56 22.3 10.73 22.72 11.73 23.56L8.59 26.7C7.54797 25.5266 6.77948 24.1364 6.34 22.63ZM19.56 17.8C21.53 19.27 23.66 19.63 25.94 18.88C25.97 19.09 26 19.47 26 20C26 21.03 25.75 22.18 25.28 23.45C24.81 24.71 24.23 25.73 23.55 26.5L17.22 20.19L19.56 17.8ZM12.77 24.64C13.83 26.17 14.05 27.84 13.42 29.66C12 29.25 10.73 28.61 9.67 27.73L12.77 24.64ZM16.19 21.22L22.5 27.55C20.33 29.45 17.78 30.25 14.88 29.94C15.09 29.28 15.2 28.56 15.2 27.78C15.2 27.16 15.06 26.43 14.78 25.6C14.5 24.77 14.17 24.09 13.8 23.56L16.19 21.22ZM12.81 22.5C11.8986 21.6852 10.7816 21.1353 9.58 20.91C8.36 20.68 7.19 20.75 6.06 21.13C6.03 20.91 6 20.53 6 20C6 18.97 6.25 17.82 6.72 16.55C7.19 15.29 7.77 14.27 8.45 13.5L15.11 20.19L12.81 22.5ZM19.56 15.73C18.22 14.08 17.91 12.28 18.63 10.34C19.25 10.5 19.96 10.8 20.76 11.26C21.55 11.71 22.2 12.16 22.7 12.59L19.56 15.73ZM25.66 17.38C25.06 17.59 24.44 17.7 23.78 17.7C22.69 17.7 21.64 17.38 20.64 16.72L23.73 13.67C24.61 14.77 25.25 16 25.66 17.38ZM16.19 19.11L9.5 12.45C11.67 10.55 14.22 9.74995 17.13 10.06C16.91 10.72 16.8 11.44 16.8 12.22C16.8 12.94 16.96 13.75 17.29 14.66C17.62 15.56 18 16.28 18.5 16.81L16.19 19.11Z" fill="black"/>
</svg>
