<svg width="31" height="39" viewBox="0 0 31 39" fill="none" xmlns="http://www.w3.org/2000/svg">
<rect x="0.5" width="30" height="39" rx="7" fill="white"/>
<g clip-path="url(#clip0_1_1336)">
<mask id="mask0_1_1336" style="mask-type:luminance" maskUnits="userSpaceOnUse" x="12" y="33" width="6" height="6">
<path d="M12 33H18V39H12V33Z" fill="white"/>
</mask>
<g mask="url(#mask0_1_1336)">
<path d="M13.5608 37.9279V37.4711L13.2813 37.2551C13.1852 37.1808 13.1128 37.0801 13.0732 36.9652C13.0335 36.8504 13.0281 36.7265 13.0578 36.6087C13.0875 36.4909 13.1509 36.3843 13.2402 36.302C13.3296 36.2197 13.441 36.1652 13.5608 36.1453V36.0542L13.2738 35.8688C13.0929 35.7519 12.9605 35.5733 12.9014 35.3663H12.7718C12.5968 35.3661 12.4289 35.2965 12.305 35.1728C12.1812 35.0491 12.1114 34.8813 12.1111 34.7063V34.2831C12.1112 34.1901 12.1321 34.0983 12.1721 34.0144C12.2122 33.9305 12.2705 33.8566 12.3427 33.7981C12.415 33.7396 12.4994 33.6979 12.5897 33.6761C12.6801 33.6544 12.7742 33.653 12.8652 33.6722V33.6294C12.8652 33.4638 12.931 33.3049 13.0481 33.1878C13.1653 33.0707 13.3241 33.0049 13.4898 33.0049C13.6554 33.0049 13.8143 33.0707 13.9314 33.1878C14.0485 33.3049 14.1143 33.4638 14.1143 33.6294V34.8881C14.1148 34.9007 14.1185 34.913 14.125 34.9237C14.1316 34.9345 14.1408 34.9433 14.1518 34.9494C14.1618 34.9559 14.1735 34.9594 14.1854 34.9594C14.1988 34.9593 14.2119 34.9551 14.2229 34.9474C14.2325 34.9411 14.2403 34.9327 14.2458 34.9226C14.2513 34.9126 14.2543 34.9014 14.2544 34.89V34.7505C14.2545 34.6084 14.3032 34.4705 14.3922 34.3598C14.4813 34.249 14.6055 34.1719 14.7443 34.1413C14.8832 34.1107 15.0282 34.1284 15.1556 34.1914C15.2831 34.2545 15.3851 34.3591 15.445 34.488C15.5437 34.3926 15.6716 34.3331 15.8082 34.3193V33.6167C15.811 33.4548 15.8773 33.3005 15.9927 33.187C16.1082 33.0736 16.2636 33.0099 16.4255 33.0099C16.5874 33.0099 16.7428 33.0735 16.8583 33.1869C16.9737 33.3004 17.0401 33.4546 17.0429 33.6165V34.3478C17.0793 34.3411 17.116 34.3378 17.1531 34.3378C17.3167 34.338 17.4734 34.4031 17.5891 34.5187C17.7047 34.6344 17.7697 34.7912 17.7698 34.9547V35.6633C17.7699 35.7604 17.7479 35.8562 17.7057 35.9437C17.6635 36.0312 17.6021 36.108 17.5261 36.1684L17.042 36.5556V36.7313C17.0423 36.8366 17.0188 36.9407 16.9732 37.0357C16.9277 37.1307 16.8612 37.2142 16.7789 37.2799L16.2895 37.6714V37.9764C16.3674 37.9432 16.4538 37.9361 16.5361 37.9561C16.6183 37.9761 16.6919 38.0222 16.7457 38.0874L17.077 38.4891C17.0873 38.5014 17.0939 38.5165 17.0959 38.5325C17.0979 38.5485 17.0953 38.5647 17.0884 38.5792C17.0815 38.5938 17.0706 38.6061 17.057 38.6146C17.0433 38.6231 17.0275 38.6276 17.0114 38.6274H13.0025C12.9863 38.6276 12.9704 38.6231 12.9568 38.6145C12.9431 38.6058 12.9322 38.5935 12.9253 38.5789C12.9185 38.5642 12.916 38.5479 12.9181 38.5319C12.9203 38.5159 12.9269 38.5008 12.9374 38.4885L13.1924 38.1848C13.2904 38.0681 13.4175 37.9795 13.5608 37.9279ZM16.4249 33.375C16.3609 33.3752 16.2995 33.4007 16.2543 33.446C16.2091 33.4913 16.1836 33.5527 16.1836 33.6167V34.7378C16.1836 34.7501 16.1801 34.7622 16.1735 34.7726C16.1669 34.783 16.1575 34.7914 16.1464 34.7968C16.1353 34.8021 16.1229 34.8042 16.1106 34.8028C16.0984 34.8014 16.0867 34.7966 16.0771 34.7889L16.0223 34.7438C15.9722 34.7039 15.9083 34.6855 15.8446 34.6928C15.781 34.7 15.7228 34.7323 15.683 34.7824C15.6431 34.8325 15.6247 34.8964 15.632 34.9601C15.6392 35.0237 15.6715 35.0819 15.7216 35.1218L16.1039 35.4291C16.1291 35.4492 16.1495 35.4747 16.1634 35.5037C16.1774 35.5328 16.1846 35.5646 16.1845 35.5969V36.4982C16.1843 36.5474 16.1732 36.596 16.1519 36.6404C16.1305 36.6848 16.0996 36.7239 16.0613 36.7549L15.5832 37.1374C15.5358 37.1755 15.4975 37.2237 15.4712 37.2786C15.4449 37.3334 15.4312 37.3934 15.4311 37.4543V38.2386C15.4699 38.2481 15.5095 38.2528 15.5498 38.2528H15.8101C15.8455 38.2528 15.8799 38.2484 15.9134 38.2397V37.5799C15.9135 37.5527 15.9196 37.5258 15.9314 37.5013C15.9431 37.4767 15.9602 37.4551 15.9813 37.4379L16.5438 36.9879C16.5823 36.9572 16.6133 36.9181 16.6347 36.8737C16.656 36.8292 16.667 36.7805 16.667 36.7313V36.4779C16.6669 36.4457 16.6741 36.4139 16.688 36.3848C16.702 36.3557 16.7224 36.3302 16.7476 36.3101L17.2913 35.8748C17.3232 35.8493 17.3489 35.817 17.3666 35.7803C17.3843 35.7435 17.3935 35.7033 17.3935 35.6625V34.9547C17.3948 34.9222 17.3895 34.8897 17.3779 34.8593C17.3664 34.8288 17.3488 34.801 17.3262 34.7775C17.3036 34.7541 17.2766 34.7354 17.2466 34.7226C17.2166 34.7099 17.1844 34.7033 17.1518 34.7033C17.1193 34.7033 17.087 34.7099 17.0571 34.7226C17.0271 34.7354 17 34.7541 16.9775 34.7775C16.9549 34.801 16.9373 34.8288 16.9257 34.8593C16.9142 34.8897 16.9089 34.9222 16.9101 34.9547V35.5024C16.91 35.5224 16.905 35.542 16.8956 35.5596C16.8861 35.5772 16.8725 35.5922 16.8559 35.6034C16.8394 35.6145 16.8203 35.6214 16.8004 35.6235C16.7806 35.6255 16.7605 35.6227 16.742 35.6153C16.7196 35.606 16.7005 35.5904 16.6871 35.5703C16.6737 35.5502 16.6665 35.5266 16.6666 35.5024V33.6167C16.6665 33.5526 16.6411 33.4912 16.5957 33.4459C16.5504 33.4005 16.489 33.3751 16.4249 33.375ZM15.1446 38.0631V37.3997C15.1447 37.2869 15.1732 37.176 15.2275 37.0772C15.2819 36.9784 15.3603 36.895 15.4555 36.8346L15.6901 36.6846C15.7602 36.6402 15.8179 36.5789 15.8578 36.5062C15.8978 36.4336 15.9187 36.352 15.9186 36.2691V35.7585C15.9188 35.7115 15.905 35.6655 15.879 35.6264C15.8529 35.5873 15.8158 35.5568 15.7724 35.5388C15.729 35.5208 15.6812 35.5162 15.6351 35.5254C15.589 35.5347 15.5467 35.5575 15.5136 35.5909C15.4916 35.6129 15.4742 35.639 15.4623 35.6678C15.4505 35.6966 15.4444 35.7274 15.4445 35.7585V36.1969C15.4445 36.2367 15.4287 36.2748 15.4005 36.3029C15.3724 36.3311 15.3342 36.3469 15.2945 36.3469C15.2547 36.3469 15.2165 36.3311 15.1884 36.3029C15.1603 36.2748 15.1445 36.2367 15.1445 36.1969V36.1356C15.1427 36.0739 15.117 36.0153 15.0728 35.9723C15.0285 35.9293 14.9693 35.9052 14.9076 35.9052C14.8459 35.9052 14.7866 35.9293 14.7423 35.9723C14.6981 36.0153 14.6724 36.0739 14.6706 36.1356V37.8791C14.8435 37.8914 15.0087 37.9555 15.1446 38.0631ZM14.435 37.8771V36.0233C14.4349 35.9701 14.4482 35.9178 14.4736 35.8712C14.499 35.8245 14.5358 35.785 14.5805 35.7563L14.8077 35.6094C14.9062 35.5457 14.9872 35.4584 15.0433 35.3553C15.0994 35.2523 15.1288 35.1369 15.1289 35.0196V34.7503C15.1289 34.7175 15.1224 34.6851 15.1099 34.6548C15.0974 34.6245 15.079 34.597 15.0558 34.5739C15.0326 34.5507 15.0051 34.5323 14.9748 34.5198C14.9446 34.5072 14.9121 34.5008 14.8793 34.5008C14.8466 34.5008 14.8141 34.5072 14.7838 34.5198C14.7536 34.5323 14.726 34.5507 14.7029 34.5739C14.6797 34.597 14.6613 34.6245 14.6488 34.6548C14.6362 34.6851 14.6298 34.7175 14.6298 34.7503V34.8898C14.6297 34.9638 14.6111 35.0366 14.5757 35.1016C14.5403 35.1666 14.4892 35.2218 14.4271 35.262L14.4235 35.2643C14.3529 35.3098 14.2707 35.3341 14.1866 35.3341C14.1026 35.3341 14.0203 35.3098 13.9497 35.2643L13.9443 35.2607C13.8818 35.2206 13.8303 35.1655 13.7947 35.1004C13.7591 35.0352 13.7404 34.9622 13.7405 34.8879V33.6294C13.738 33.5649 13.7106 33.5039 13.664 33.4591C13.6175 33.4144 13.5555 33.3894 13.4909 33.3894C13.4263 33.3894 13.3643 33.4144 13.3178 33.4591C13.2712 33.5039 13.2438 33.5649 13.2413 33.6294V34.3648C13.2413 34.3988 13.2278 34.4314 13.2038 34.4554C13.1798 34.4794 13.1472 34.4929 13.1133 34.4929C13.0793 34.4929 13.0467 34.4794 13.0227 34.4554C12.9987 34.4314 12.9852 34.3988 12.9852 34.3648V34.2831C12.9852 34.2169 12.9589 34.1534 12.9121 34.1066C12.8653 34.0598 12.8018 34.0335 12.7356 34.0335C12.6695 34.0335 12.606 34.0598 12.5592 34.1066C12.5124 34.1534 12.4861 34.2169 12.4861 34.2831V34.7063C12.4862 34.7819 12.5164 34.8544 12.57 34.9079C12.6236 34.9613 12.6962 34.9913 12.7718 34.9913H13.1133C13.1474 34.9913 13.1801 35.0049 13.2042 35.0291C13.2284 35.0532 13.2419 35.0859 13.2419 35.1201C13.242 35.2063 13.2636 35.291 13.3048 35.3667C13.346 35.4425 13.4055 35.5067 13.4778 35.5536L13.7903 35.7563C13.8348 35.7851 13.8714 35.8245 13.8968 35.871C13.9222 35.9176 13.9356 35.9697 13.9358 36.0227V36.5501C13.9359 36.5571 13.9345 36.5639 13.9319 36.5703C13.9292 36.5767 13.9254 36.5825 13.9205 36.5874C13.9156 36.5923 13.9097 36.5962 13.9033 36.5989C13.8969 36.6015 13.8901 36.6028 13.8831 36.6028C13.8715 36.6029 13.8602 36.5989 13.8511 36.5916L13.8162 36.5646C13.7638 36.5272 13.6989 36.5116 13.6353 36.521C13.5716 36.5304 13.514 36.564 13.4745 36.6149C13.4351 36.6657 13.4168 36.7299 13.4236 36.7939C13.4303 36.8579 13.4616 36.9168 13.5108 36.9583L13.8805 37.2444C13.8977 37.2577 13.9116 37.2748 13.9212 37.2943C13.9308 37.3138 13.9358 37.3352 13.9358 37.3569V37.8771H14.435Z" fill="black"/>
<path d="M12.9326 36.4445C12.9326 36.5378 12.8956 36.6273 12.8296 36.6932C12.7636 36.7592 12.6742 36.7963 12.5809 36.7963C12.4876 36.7963 12.3981 36.7592 12.3322 36.6932C12.2662 36.6273 12.2291 36.5378 12.2291 36.4445C12.2291 36.3512 12.2662 36.2618 12.3322 36.1958C12.3981 36.1298 12.4876 36.0928 12.5809 36.0928C12.6742 36.0928 12.7636 36.1298 12.8296 36.1958C12.8956 36.2618 12.9326 36.3512 12.9326 36.4445ZM17.8125 36.8913C17.8125 36.9286 17.7977 36.9644 17.7713 36.9908C17.7449 37.0171 17.7092 37.032 17.6719 37.032C17.6346 37.032 17.5988 37.0171 17.5724 36.9908C17.5461 36.9644 17.5312 36.9286 17.5312 36.8913C17.5312 36.854 17.5461 36.8183 17.5724 36.7919C17.5988 36.7655 17.6346 36.7507 17.6719 36.7507C17.7092 36.7507 17.7449 36.7655 17.7713 36.7919C17.7977 36.8183 17.8125 36.854 17.8125 36.8913ZM17.625 37.4062C17.625 37.4808 17.5954 37.5523 17.5426 37.6051C17.4899 37.6578 17.4183 37.6875 17.3438 37.6875C17.2692 37.6875 17.1976 37.6578 17.1449 37.6051C17.0921 37.5523 17.0625 37.4808 17.0625 37.4062C17.0625 37.3316 17.0921 37.2601 17.1449 37.2073C17.1976 37.1546 17.2692 37.125 17.3438 37.125C17.4183 37.125 17.4899 37.1546 17.5426 37.2073C17.5954 37.2601 17.625 37.3316 17.625 37.4062ZM17.9062 37.5C17.9311 37.5 17.955 37.4901 17.9725 37.4725C17.9901 37.4549 18 37.4311 18 37.4062C18 37.3813 17.9901 37.3575 17.9725 37.3399C17.955 37.3223 17.9311 37.3125 17.9062 37.3125C17.8814 37.3125 17.8575 37.3223 17.84 37.3399C17.8224 37.3575 17.8125 37.3813 17.8125 37.4062C17.8125 37.4311 17.8224 37.4549 17.84 37.4725C17.8575 37.4901 17.8814 37.5 17.9062 37.5ZM12.7744 37.3147C12.8123 37.3147 12.8488 37.2996 12.8756 37.2728C12.9024 37.2459 12.9175 37.2095 12.9175 37.1716C12.9175 37.1336 12.9024 37.0972 12.8756 37.0703C12.8488 37.0435 12.8123 37.0284 12.7744 37.0284C12.7364 37.0284 12.7 37.0435 12.6731 37.0703C12.6463 37.0972 12.6312 37.1336 12.6312 37.1716C12.6312 37.2095 12.6463 37.2459 12.6731 37.2728C12.7 37.2996 12.7364 37.3147 12.7744 37.3147ZM12.4403 37.3526C12.4403 37.3815 12.4346 37.4101 12.4235 37.4368C12.4124 37.4635 12.3962 37.4878 12.3758 37.5082C12.3553 37.5287 12.3311 37.5449 12.3044 37.556C12.2777 37.567 12.249 37.5727 12.2201 37.5727C12.1912 37.5727 12.1626 37.567 12.1359 37.556C12.1092 37.5449 12.0849 37.5287 12.0645 37.5082C12.044 37.4878 12.0278 37.4635 12.0168 37.4368C12.0057 37.4101 12 37.3815 12 37.3526C12 37.2942 12.0232 37.2382 12.0645 37.1969C12.1058 37.1557 12.1617 37.1325 12.2201 37.1325C12.2785 37.1325 12.3345 37.1557 12.3758 37.1969C12.4171 37.2382 12.4403 37.2942 12.4403 37.3526Z" fill="black"/>
</g>
</g>
<circle cx="15.5" cy="11.5" r="7.5" fill="black"/>
<path d="M12 22.5L12.5 25.5M13.5 23V24M18 23V24.5M19.5 23L19 26" stroke="black" stroke-width="0.2"/>
<path d="M18 24.5L13.5 24L12.5 25.5L19 26L18 24.5Z" fill="url(#paint0_linear_1_1336)" stroke="black" stroke-width="0.2"/>
<path d="M12.5 28V25.5L19 26V28.5L12.5 28Z" fill="#706D6D" stroke="black" stroke-width="0.2"/>
<circle cx="13.5" cy="26.5" r="0.5" fill="#D9D9D9"/>
<path d="M13.5 27V29.5M17.5 28V30.5" stroke="black" stroke-width="0.2"/>
<circle cx="17.5" cy="27.5" r="0.5" fill="#D9D9D9"/>
<path d="M19.5 23C19.1 21 21.5 18 22.9993 12.5H8C9 16.5 11 20.5 12 23C13.8333 23.1667 19.5006 23.4 19.5 23Z" fill="black"/>
<defs>
<linearGradient id="paint0_linear_1_1336" x1="15.75" y1="24" x2="15.75" y2="26" gradientUnits="userSpaceOnUse">
<stop stop-color="#D9D9D9"/>
<stop offset="1"/>
</linearGradient>
<clipPath id="clip0_1_1336">
<rect width="6" height="6" fill="white" transform="translate(12 33)"/>
</clipPath>
</defs>
</svg>
