<svg width="60" height="50" viewBox="0 0 60 50" fill="none" xmlns="http://www.w3.org/2000/svg">
<rect width="60" height="50" rx="10" fill="#DF924A"/>
<path d="M37.65 20.8333H35V12.4999C35 11.5833 34.25 10.8333 33.3333 10.8333H26.6667C25.75 10.8333 25 11.5833 25 12.4999V20.8333H22.35C20.8667 20.8333 20.1167 22.6333 21.1667 23.6833L28.8167 31.3333C29.4667 31.9833 30.5167 31.9833 31.1667 31.3333L38.8167 23.6833C39.8667 22.6333 39.1333 20.8333 37.65 20.8333ZM18.3333 37.4999C18.3333 38.4166 19.0833 39.1666 20 39.1666H40C40.9167 39.1666 41.6667 38.4166 41.6667 37.4999C41.6667 36.5833 40.9167 35.8333 40 35.8333H20C19.0833 35.8333 18.3333 36.5833 18.3333 37.4999Z" fill="white"/>
</svg>
