<svg width="31" height="39" viewBox="0 0 31 39" fill="none" xmlns="http://www.w3.org/2000/svg">
<rect width="31" height="39" rx="7" fill="white"/>
<g clip-path="url(#clip0_1_1254)">
<path d="M27.3392 14.661L25.1782 16.8219C24.9579 17.0422 24.6017 17.0422 24.3814 16.8219L19.1782 11.6188C18.9579 11.3985 18.9579 11.0422 19.1782 10.8219L21.3392 8.66096C22.2157 7.7844 23.6407 7.7844 24.522 8.66096L27.3392 11.4781C28.2204 12.3547 28.2204 13.7797 27.3392 14.661ZM17.322 12.6781L5.01261 24.9875L4.01886 30.6828C3.88292 31.4516 4.55324 32.1172 5.32199 31.986L11.0173 30.9875L23.3267 18.6782C23.547 18.4578 23.547 18.1016 23.3267 17.8813L18.1235 12.6781C17.8985 12.4578 17.5423 12.4578 17.322 12.6781ZM9.8173 23.9328C9.55948 23.675 9.55948 23.2625 9.8173 23.0047L17.036 15.786C17.2939 15.5281 17.7064 15.5281 17.9642 15.786C18.222 16.0438 18.222 16.4563 17.9642 16.7141L10.7454 23.9328C10.4876 24.1906 10.0751 24.1906 9.8173 23.9328ZM8.12511 27.875H10.3751V29.5766L7.35167 30.1063L5.89386 28.6485L6.42355 25.625H8.12511V27.875Z" fill="black"/>
</g>
<defs>
<clipPath id="clip0_1_1254">
<rect width="24" height="24" fill="white" transform="translate(4 8)"/>
</clipPath>
</defs>
</svg>
