<svg width="31" height="39" viewBox="0 0 31 39" fill="none" xmlns="http://www.w3.org/2000/svg">
<rect x="0.5" width="30" height="39" rx="7" fill="white"/>
<path d="M15.5 20V12C15.5 11.7348 15.6054 11.4804 15.7929 11.2929C15.9804 11.1054 16.2348 11 16.5 11H22.797C23.0013 11 23.2007 11.0626 23.3683 11.1793C23.536 11.2961 23.6638 11.4613 23.7347 11.6529C23.8056 11.8445 23.8162 12.0532 23.7649 12.2509C23.7136 12.4487 23.6031 12.626 23.448 12.759L18.752 16.784M15.5 29L8.086 21.586C7.7109 21.211 7.50011 20.7024 7.5 20.172V14.415C7.50099 14.2177 7.56022 14.025 7.67026 13.8612C7.7803 13.6974 7.93626 13.5698 8.11857 13.4943C8.30088 13.4188 8.50142 13.3988 8.69506 13.4368C8.88869 13.4748 9.06678 13.5692 9.207 13.708L23.5 28.009" stroke="black" stroke-width="2" stroke-linecap="round" stroke-linejoin="round"/>
<path d="M15.714 11.381L24.128 26.347C24.2351 26.5376 24.2767 26.7581 24.2465 26.9746C24.2164 27.1912 24.1161 27.3919 23.961 27.546L22.793 28.709C22.6054 28.8956 22.3516 29.0002 22.087 29H9.85101C9.62385 29.0001 9.40342 28.9228 9.22601 28.781L6.75001 26.8C6.58772 26.6702 6.46988 26.4931 6.41288 26.2933C6.35587 26.0935 6.36253 25.8809 6.43192 25.685C6.50132 25.4891 6.63 25.3198 6.80009 25.2004C6.97017 25.081 7.17322 25.0176 7.38101 25.019L11.546 25.046" stroke="black" stroke-width="2" stroke-linecap="round" stroke-linejoin="round"/>
</svg>
