<svg width="24" height="24" viewBox="0 0 24 24" fill="none" xmlns="http://www.w3.org/2000/svg">
<path d="M21.0375 16.075L17.8625 15.7125C17.4892 15.6686 17.1108 15.7099 16.7557 15.8333C16.4006 15.9567 16.0782 16.159 15.8125 16.425L13.5125 18.725C9.96398 16.9202 7.07972 14.036 5.275 10.4875L7.5875 8.17495C8.125 7.63745 8.3875 6.88745 8.3 6.12495L7.9375 2.97495C7.86663 2.36517 7.57399 1.80275 7.11529 1.39476C6.6566 0.986776 6.06388 0.761723 5.45 0.762453H3.2875C1.875 0.762453 0.699997 1.93745 0.787497 3.34995C1.45 14.025 9.9875 22.55 20.65 23.2125C22.0625 23.3 23.2375 22.125 23.2375 20.7125V18.55C23.25 17.2875 22.3 16.225 21.0375 16.075Z" fill="black"/>
</svg>
