<svg width="31" height="39" viewBox="0 0 31 39" fill="none" xmlns="http://www.w3.org/2000/svg">
<g clip-path="url(#clip0_1_1217)">
<rect x="0.5" width="30" height="39" rx="7" fill="white"/>
<rect x="8" y="28" width="16" height="20" fill="url(#paint0_linear_1_1217)"/>
<path d="M11 25.5001H21L24 28H8L11 25.5001Z" fill="#D9D9D9"/>
<path d="M16.4942 11.2318L20.1895 12.667L16.3101 26.1686C16.2289 26.4512 15.9225 26.6031 15.6485 26.4966L10.5104 24.5011C10.2363 24.3946 10.1128 24.0758 10.2436 23.8125L16.4942 11.2318Z" fill="black"/>
<rect x="16.9714" y="10" width="3.96423" height="1.32141" transform="rotate(21.2256 16.9714 10)" fill="#888484"/>
<path opacity="0.5" d="M18 28L16 26L14 28H18Z" fill="url(#paint1_linear_1_1217)"/>
</g>
<defs>
<linearGradient id="paint0_linear_1_1217" x1="16" y1="28" x2="16" y2="48" gradientUnits="userSpaceOnUse">
<stop/>
<stop offset="1" stop-color="#D9D9D9"/>
</linearGradient>
<linearGradient id="paint1_linear_1_1217" x1="16" y1="25.6667" x2="16" y2="28.6667" gradientUnits="userSpaceOnUse">
<stop/>
<stop offset="1" stop-color="white" stop-opacity="0"/>
</linearGradient>
<clipPath id="clip0_1_1217">
<rect x="0.5" width="30" height="39" rx="7" fill="white"/>
</clipPath>
</defs>
</svg>
