<svg width="281" height="296" viewBox="0 0 281 296" fill="none" xmlns="http://www.w3.org/2000/svg">
<path d="M132.651 166.304C132.436 165.612 132.918 165.322 133.188 165.612C135.874 168.496 148.122 167.919 150.378 167.804C152.183 167.711 153.135 168.765 153.386 169.303L161.981 186.84C162.153 188.593 160.907 189.109 160.262 189.147C155.642 189.262 146.059 189.424 144.684 189.147C143.309 188.87 142.75 188.34 142.642 188.109L132.651 166.304Z" fill="black"/>
<path d="M107.026 166.202L106.008 187.2C105.909 189.236 106.77 190 107.789 190H126.751C129.093 190 129.678 188.388 129.678 187.582C130.06 180.752 130.824 166.609 130.824 164.675C130.824 162.741 131.248 162.342 131.46 162.384C142.659 164.675 147.622 165.311 160.094 160.475C172.565 155.639 179.692 137.823 171.038 124.079C164.115 113.083 150.931 108.722 145.204 107.916C135.787 107.323 116.672 106.109 115.552 106.008C114.152 105.88 113.134 107.407 112.753 107.916C112.447 108.324 112.201 109.953 112.116 110.716C111.692 116.316 110.818 127.693 110.716 128.406C110.589 129.296 111.225 140.495 124.842 139.223C135.736 138.205 140.326 131.587 141.259 128.406L160.094 131.587L147.622 135.023V135.659L160.857 132.86L145.841 143.931C132.605 134.387 119.243 144.568 113.771 149.022C109.393 152.585 107.45 161.96 107.026 166.202Z" fill="black"/>
<g style="mix-blend-mode:multiply" filter="url(#filter0_f_1_958)">
<path d="M107.026 166.202L106.008 187.2C105.909 189.236 106.77 190 107.789 190H126.751C129.093 190 129.678 188.388 129.678 187.582C130.06 180.752 130.824 166.609 130.824 164.675C130.824 162.741 131.248 162.342 131.46 162.384C142.659 164.675 147.622 165.311 160.094 160.475C172.565 155.639 179.692 137.823 171.038 124.079C164.115 113.083 150.931 108.722 145.204 107.916C135.787 107.323 116.672 106.109 115.552 106.008C114.152 105.88 113.134 107.407 112.753 107.916C112.447 108.324 112.201 109.953 112.116 110.716C111.692 116.316 110.818 127.693 110.716 128.406C110.589 129.296 111.225 140.495 124.842 139.223C135.736 138.205 140.326 131.587 141.259 128.406L160.094 131.587L147.622 135.023V135.659L160.857 132.86L145.841 143.931C132.605 134.387 119.243 144.568 113.771 149.022C109.393 152.585 107.45 161.96 107.026 166.202Z" fill="#DD934A"/>
</g>
<g style="mix-blend-mode:multiply" filter="url(#filter1_f_1_958)">
<path d="M107.026 166.202L106.008 187.2C105.909 189.236 106.77 190 107.789 190H126.751C129.093 190 129.678 188.388 129.678 187.582C130.06 180.752 130.824 166.609 130.824 164.675C130.824 162.741 131.248 162.342 131.46 162.384C142.659 164.675 147.622 165.311 160.094 160.475C172.565 155.639 179.692 137.823 171.038 124.079C164.115 113.083 150.931 108.722 145.204 107.916C135.787 107.323 116.672 106.109 115.552 106.008C114.152 105.88 113.134 107.407 112.753 107.916C112.447 108.324 112.201 109.953 112.116 110.716C111.692 116.316 110.818 127.693 110.716 128.406C110.589 129.296 111.225 140.495 124.842 139.223C135.736 138.205 140.326 131.587 141.259 128.406L160.094 131.587L147.622 135.023V135.659L160.857 132.86L145.841 143.931C132.605 134.387 119.243 144.568 113.771 149.022C109.393 152.585 107.45 161.96 107.026 166.202Z" fill="#DD934A"/>
</g>
<g style="mix-blend-mode:multiply" filter="url(#filter2_f_1_958)">
<path d="M107.026 166.202L106.008 187.2C105.909 189.236 106.77 190 107.789 190H126.751C129.093 190 129.678 188.388 129.678 187.582C130.06 180.752 130.824 166.609 130.824 164.675C130.824 162.741 131.248 162.342 131.46 162.384C142.659 164.675 147.622 165.311 160.094 160.475C172.565 155.639 179.692 137.823 171.038 124.079C164.115 113.083 150.931 108.722 145.204 107.916C135.787 107.323 116.672 106.109 115.552 106.008C114.152 105.88 113.134 107.407 112.753 107.916C112.447 108.324 112.201 109.953 112.116 110.716C111.692 116.316 110.818 127.693 110.716 128.406C110.589 129.296 111.225 140.495 124.842 139.223C135.736 138.205 140.326 131.587 141.259 128.406L160.094 131.587L147.622 135.023V135.659L160.857 132.86L145.841 143.931C132.605 134.387 119.243 144.568 113.771 149.022C109.393 152.585 107.45 161.96 107.026 166.202Z" fill="#DD934A"/>
</g>
<g style="mix-blend-mode:multiply" filter="url(#filter3_f_1_958)">
<path d="M107.026 166.202L106.008 187.2C105.909 189.236 106.77 190 107.789 190H126.751C129.093 190 129.678 188.388 129.678 187.582C130.06 180.752 130.824 166.609 130.824 164.675C130.824 162.741 131.248 162.342 131.46 162.384C142.659 164.675 147.622 165.311 160.094 160.475C172.565 155.639 179.692 137.823 171.038 124.079C164.115 113.083 150.931 108.722 145.204 107.916C135.787 107.323 116.672 106.109 115.552 106.008C114.152 105.88 113.134 107.407 112.753 107.916C112.447 108.324 112.201 109.953 112.116 110.716C111.692 116.316 110.818 127.693 110.716 128.406C110.589 129.296 111.225 140.495 124.842 139.223C135.736 138.205 140.326 131.587 141.259 128.406L160.094 131.587L147.622 135.023V135.659L160.857 132.86L145.841 143.931C132.605 134.387 119.243 144.568 113.771 149.022C109.393 152.585 107.45 161.96 107.026 166.202Z" fill="#DD934A"/>
</g>
<defs>
<filter id="filter0_f_1_958" x="72.8846" y="72.8846" width="135.079" height="150.231" filterUnits="userSpaceOnUse" color-interpolation-filters="sRGB">
<feFlood flood-opacity="0" result="BackgroundImageFix"/>
<feBlend mode="normal" in="SourceGraphic" in2="BackgroundImageFix" result="shape"/>
<feGaussianBlur stdDeviation="16.5577" result="effect1_foregroundBlur_1_958"/>
</filter>
<filter id="filter1_f_1_958" x="0.353844" y="0.353844" width="280.141" height="295.292" filterUnits="userSpaceOnUse" color-interpolation-filters="sRGB">
<feFlood flood-opacity="0" result="BackgroundImageFix"/>
<feBlend mode="normal" in="SourceGraphic" in2="BackgroundImageFix" result="shape"/>
<feGaussianBlur stdDeviation="52.8231" result="effect1_foregroundBlur_1_958"/>
</filter>
<filter id="filter2_f_1_958" x="0.353844" y="0.353844" width="280.141" height="295.292" filterUnits="userSpaceOnUse" color-interpolation-filters="sRGB">
<feFlood flood-opacity="0" result="BackgroundImageFix"/>
<feBlend mode="normal" in="SourceGraphic" in2="BackgroundImageFix" result="shape"/>
<feGaussianBlur stdDeviation="52.8231" result="effect1_foregroundBlur_1_958"/>
</filter>
<filter id="filter3_f_1_958" x="0.353844" y="0.353844" width="280.141" height="295.292" filterUnits="userSpaceOnUse" color-interpolation-filters="sRGB">
<feFlood flood-opacity="0" result="BackgroundImageFix"/>
<feBlend mode="normal" in="SourceGraphic" in2="BackgroundImageFix" result="shape"/>
<feGaussianBlur stdDeviation="52.8231" result="effect1_foregroundBlur_1_958"/>
</filter>
</defs>
</svg>
