<svg width="31" height="39" viewBox="0 0 31 39" fill="none" xmlns="http://www.w3.org/2000/svg">
<rect x="0.5" width="30" height="39" rx="7" fill="white"/>
<path d="M10 11L12 16.5L14 16V14H17L17.5 16L20.5 17.5L21.5 21V26L22.5 28L22 28.5L21 28L20.5 28.5V26.5L20 21.25L19.5 25V34.5L16 35L15.5 28L13.5 35L8.5 34.5L11 26V18.5L9 12.5L7 9.5L8 6.5L10 9V8H11L10 11Z" fill="black"/>
<path d="M12 16.5L10 11M12 16.5L11 18.5M12 16.5L14 16M10 11L9 12.5M10 11L11 8H10V9L8 6.5L7 9.5L9 12.5M9 12.5L11 18.5M11 18.5V26M14 16L15 17.5H17.5V16M14 16V14H17L17.5 16M17.5 16L20.5 17.5M20.5 17.5L21.5 21M20.5 17.5L20 21.25M19.5 25L11 26M19.5 25V34.5L16 35L15.5 28L13.5 35L8.5 34.5L11 26M19.5 25L20 21.25M21.5 21L20 21.25M21.5 21V26M20 21.25L20.5 26.5M21.5 26L20.5 26.5M21.5 26L22.5 28L22 28.5L21 28L20.5 28.5V26.5" stroke="black" stroke-width="0.2"/>
<circle cx="15.5" cy="11.5" r="3.5" fill="black"/>
</svg>
