<svg width="31" height="39" viewBox="0 0 31 39" fill="none" xmlns="http://www.w3.org/2000/svg">
<rect width="31" height="39" rx="7" fill="white"/>
<path d="M14.1269 14.3018C12.1319 16.5505 9.86992 19.7948 7.91483 23.7074C7.77142 23.9942 7.51995 24.2123 7.21573 24.3138C6.91151 24.4152 6.57947 24.3916 6.29265 24.2482C6.00583 24.1047 5.78772 23.8533 5.68632 23.5491C5.58491 23.2448 5.60851 22.9128 5.75192 22.626C7.79642 18.5382 10.1744 15.1162 12.318 12.6983C13.3886 11.4912 14.4205 10.5112 15.3461 9.82247C15.8077 9.47809 16.2644 9.19051 16.703 8.98509C17.1272 8.78451 17.6129 8.62501 18.112 8.62501C18.3922 8.62396 18.6671 8.70153 18.9055 8.84891C19.1439 8.9963 19.3362 9.20758 19.4605 9.45876C19.6502 9.83576 19.6707 10.2381 19.6659 10.51C19.6562 11.0864 19.5028 11.8066 19.3058 12.54C18.901 14.042 18.1905 16.0333 17.4848 17.9993L17.3858 18.2748C16.7018 20.1767 16.0288 22.0484 15.5914 23.5431C15.4738 23.9467 15.3775 24.3072 15.3026 24.6245C16.1412 23.9515 17.1755 22.9377 18.2715 21.8599L18.3077 21.8248C19.3723 20.7784 20.4996 19.6716 21.4494 18.9116C21.9218 18.5346 22.4305 18.1757 22.9211 17.9691C23.332 17.7938 24.2745 17.5099 25.0079 18.2433C25.4719 18.7073 25.6 19.3115 25.6338 19.761C25.6701 20.2323 25.6145 20.7398 25.5287 21.2231C25.3595 22.1898 25.0164 23.3171 24.7034 24.3345L24.6539 24.4977C24.3735 25.4051 24.1246 26.2159 23.9833 26.866C24.2974 26.5518 24.6841 26.0516 25.136 25.3133C25.2189 25.1779 25.3277 25.0602 25.4561 24.9669C25.5845 24.8736 25.73 24.8065 25.8843 24.7694C26.0387 24.7323 26.1988 24.726 26.3556 24.7508C26.5123 24.7756 26.6627 24.831 26.7981 24.9139C26.9334 24.9969 27.0511 25.1056 27.1444 25.234C27.2378 25.3624 27.3049 25.5079 27.342 25.6623C27.379 25.8166 27.3854 25.9767 27.3606 26.1335C27.3358 26.2903 27.2803 26.4407 27.1974 26.576C26.5413 27.6466 25.8622 28.5166 25.142 29.0567C24.388 29.6222 23.402 29.9412 22.404 29.4422C21.6693 29.0736 21.5025 28.3426 21.4651 27.9366C21.4252 27.498 21.4893 27.0195 21.5726 26.5893C21.7297 25.7761 22.0378 24.7804 22.3278 23.8391L22.3943 23.6241C22.7169 22.5752 23.0105 21.5953 23.1495 20.8038L23.1785 20.6286L22.9598 20.7978C22.1164 21.4732 21.0736 22.4955 19.9655 23.5842L19.9293 23.6204C18.8648 24.6656 17.7374 25.7737 16.7876 26.5325C16.3152 26.9107 15.8065 27.2696 15.3159 27.4762C14.905 27.6514 13.9625 27.9354 13.2291 27.2019C12.8557 26.8286 12.7603 26.3573 12.73 26.0709C12.702 25.7475 12.7114 25.4219 12.7578 25.1006C12.84 24.4626 13.0309 23.6869 13.2726 22.8652C13.7318 21.2968 14.4265 19.3611 15.0996 17.4893L15.2108 17.1812C15.9273 15.1851 16.5991 13.2976 16.9713 11.9129L17.0607 11.5673C16.9692 11.63 16.879 11.6944 16.79 11.7606C16.0373 12.3213 15.1262 13.1744 14.1269 14.3018Z" fill="black"/>
<path d="M13.1269 14.3018C11.1319 16.5505 8.86992 19.7948 6.91483 23.7074C6.77142 23.9942 6.51995 24.2123 6.21573 24.3138C5.91151 24.4152 5.57947 24.3916 5.29265 24.2482C5.00583 24.1047 4.78772 23.8533 4.68632 23.5491C4.58491 23.2448 4.60851 22.9128 4.75192 22.626C6.79642 18.5382 9.17442 15.1162 11.318 12.6983C12.3886 11.4912 13.4205 10.5112 14.3461 9.82247C14.8077 9.47809 15.2644 9.19051 15.703 8.98509C16.1272 8.78451 16.6129 8.62501 17.112 8.62501C17.3922 8.62396 17.6671 8.70153 17.9055 8.84891C18.1439 8.9963 18.3362 9.20758 18.4605 9.45876C18.6502 9.83576 18.6707 10.2381 18.6659 10.51C18.6562 11.0864 18.5028 11.8066 18.3058 12.54C17.901 14.042 17.1905 16.0333 16.4848 17.9993L16.3858 18.2748C15.7018 20.1767 15.0288 22.0484 14.5914 23.5431C14.4738 23.9467 14.3775 24.3072 14.3026 24.6245C15.1412 23.9515 16.1755 22.9377 17.2715 21.8599L17.3077 21.8248C18.3723 20.7784 19.4996 19.6716 20.4494 18.9116C20.9218 18.5346 21.4305 18.1757 21.9211 17.9691C22.332 17.7938 23.2745 17.5099 24.0079 18.2433C24.4719 18.7073 24.6 19.3115 24.6338 19.761C24.6701 20.2323 24.6145 20.7398 24.5287 21.2231C24.3595 22.1898 24.0164 23.3171 23.7034 24.3345L23.6539 24.4977C23.3735 25.4051 23.1246 26.2159 22.9833 26.866C23.2974 26.5518 23.6841 26.0516 24.136 25.3133C24.2189 25.1779 24.3277 25.0602 24.4561 24.9669C24.5845 24.8736 24.73 24.8065 24.8843 24.7694C25.0387 24.7323 25.1988 24.726 25.3556 24.7508C25.5123 24.7756 25.6627 24.831 25.7981 24.9139C25.9334 24.9969 26.0511 25.1056 26.1444 25.234C26.2378 25.3624 26.3049 25.5079 26.342 25.6623C26.379 25.8166 26.3854 25.9767 26.3606 26.1335C26.3358 26.2903 26.2803 26.4407 26.1974 26.576C25.5413 27.6466 24.8622 28.5166 24.142 29.0567C23.388 29.6222 22.402 29.9412 21.404 29.4422C20.6693 29.0736 20.5025 28.3426 20.4651 27.9366C20.4252 27.498 20.4893 27.0195 20.5726 26.5893C20.7297 25.7761 21.0378 24.7804 21.3278 23.8391L21.3943 23.6241C21.7169 22.5752 22.0105 21.5953 22.1495 20.8038L22.1785 20.6286L21.9598 20.7978C21.1164 21.4732 20.0736 22.4955 18.9655 23.5842L18.9293 23.6204C17.8648 24.6656 16.7374 25.7737 15.7876 26.5325C15.3152 26.9107 14.8065 27.2696 14.3159 27.4762C13.905 27.6514 12.9625 27.9354 12.2291 27.2019C11.8557 26.8286 11.7603 26.3573 11.73 26.0709C11.702 25.7475 11.7114 25.4219 11.7578 25.1006C11.84 24.4626 12.0309 23.6869 12.2726 22.8652C12.7318 21.2968 13.4265 19.3611 14.0996 17.4893L14.2108 17.1812C14.9273 15.1851 15.5991 13.2976 15.9713 11.9129L16.0607 11.5673C15.9692 11.63 15.879 11.6944 15.79 11.7606C15.0373 12.3213 14.1262 13.1744 13.1269 14.3018Z" fill="black"/>
</svg>
