<svg width="31" height="39" viewBox="0 0 31 39" fill="none" xmlns="http://www.w3.org/2000/svg">
<rect x="0.5" width="30" height="39" rx="7" fill="white"/>
<path d="M7.29209 7H13.8925C14.7136 7 15.4294 7.55885 15.6285 8.35546L19.6548 24.4607C19.9372 25.5901 19.083 26.6842 17.9188 26.6842H11.3184C10.4973 26.6842 9.78151 26.1254 9.58235 25.3287L5.55604 9.22348C5.27368 8.09406 6.12791 7 7.29209 7Z" fill="black" stroke="black" stroke-width="0.447368"/>
<path d="M14.5287 8.50819C14.5026 8.41029 14.4139 8.34216 14.3126 8.34216H13.3441C13.1972 8.34216 13.0902 8.48146 13.128 8.62345L13.3666 9.51809C13.3927 9.616 13.4814 9.68412 13.5827 9.68412H14.5512C14.6981 9.68412 14.8051 9.54482 14.7673 9.40283L14.5287 8.50819Z" fill="white"/>
<path d="M16.3183 15.666C16.2921 15.5681 16.2035 15.5 16.1021 15.5H15.1337C14.9867 15.5 14.8797 15.6393 14.9176 15.7813L15.1561 16.6759C15.1822 16.7738 15.2709 16.842 15.3722 16.842H16.3407C16.4877 16.842 16.5947 16.7027 16.5568 16.5607L16.3183 15.666Z" fill="white"/>
<path d="M10.0551 8.50819C10.029 8.41029 9.94029 8.34216 9.83896 8.34216H8.87049C8.72354 8.34216 8.61652 8.48146 8.65438 8.62345L8.89295 9.51809C8.91906 9.616 9.00773 9.68412 9.10906 9.68412H10.0775C10.2245 9.68412 10.3315 9.54482 10.2936 9.40283L10.0551 8.50819Z" fill="white"/>
<path d="M11.8446 15.666C11.8185 15.5681 11.7298 15.5 11.6285 15.5H10.66C10.5131 15.5 10.4061 15.6393 10.4439 15.7813L10.6825 16.6759C10.7086 16.7738 10.7973 16.842 10.8986 16.842H11.8671C12.014 16.842 12.1211 16.7027 12.0832 16.5607L11.8446 15.666Z" fill="white"/>
<path d="M12.2919 8.50819C12.2658 8.41029 12.1771 8.34216 12.0758 8.34216H11.1073C10.9604 8.34216 10.8533 8.48146 10.8912 8.62345L11.1298 9.51809C11.1559 9.616 11.2445 9.68412 11.3459 9.68412H12.3144C12.4613 9.68412 12.5683 9.54482 12.5305 9.40283L12.2919 8.50819Z" fill="white"/>
<path d="M14.0814 15.666C14.0553 15.5681 13.9667 15.5 13.8653 15.5H12.8969C12.7499 15.5 12.6429 15.6393 12.6808 15.7813L12.9193 16.6759C12.9454 16.7738 13.0341 16.842 13.1354 16.842H14.1039C14.2509 16.842 14.3579 16.7027 14.32 16.5607L14.0814 15.666Z" fill="white"/>
<path d="M7.81825 8.50819C7.79215 8.41029 7.70348 8.34216 7.60215 8.34216H6.63367C6.48672 8.34216 6.3797 8.48146 6.41757 8.62345L6.65614 9.51809C6.68225 9.616 6.77092 9.68412 6.87225 9.68412H7.84072C7.98767 9.68412 8.09469 9.54482 8.05683 9.40283L7.81825 8.50819Z" fill="white"/>
<path d="M9.60781 15.666C9.5817 15.5681 9.49303 15.5 9.3917 15.5H8.42323C8.27627 15.5 8.16925 15.6393 8.20712 15.7813L8.44569 16.6759C8.4718 16.7738 8.56047 16.842 8.6618 16.842H9.63027C9.77722 16.842 9.88424 16.7027 9.84638 16.5607L9.60781 15.666Z" fill="white"/>
<path d="M12.7411 10.2974C12.715 10.1995 12.6263 10.1313 12.525 10.1313H11.5565C11.4096 10.1313 11.3026 10.2706 11.3404 10.4126L11.579 11.3073C11.6051 11.4052 11.6938 11.4733 11.7951 11.4733H12.7636C12.9105 11.4733 13.0175 11.334 12.9797 11.192L12.7411 10.2974Z" fill="white"/>
<path d="M14.5307 17.4553C14.5045 17.3574 14.4159 17.2893 14.3145 17.2893H13.3461C13.1991 17.2893 13.0921 17.4286 13.13 17.5706L13.3685 18.4652C13.3946 18.5631 13.4833 18.6313 13.5846 18.6313H14.5531C14.7001 18.6313 14.8071 18.492 14.7692 18.35L14.5307 17.4553Z" fill="white"/>
<path d="M8.26747 10.2974C8.24136 10.1995 8.15269 10.1313 8.05137 10.1313H7.08289C6.93594 10.1313 6.82892 10.2706 6.86679 10.4126L7.10536 11.3073C7.13146 11.4052 7.22013 11.4733 7.32146 11.4733H8.28994C8.43689 11.4733 8.54391 11.334 8.50604 11.192L8.26747 10.2974Z" fill="white"/>
<path d="M10.0568 17.4553C10.0307 17.3574 9.942 17.2893 9.84067 17.2893H8.8722C8.72525 17.2893 8.61823 17.4286 8.65609 17.5706L8.89466 18.4652C8.92077 18.5631 9.00944 18.6313 9.11077 18.6313H10.0792C10.2262 18.6313 10.3332 18.492 10.2954 18.35L10.0568 17.4553Z" fill="white"/>
<path d="M14.9762 10.2974C14.9501 10.1995 14.8614 10.1313 14.7601 10.1313H13.7916C13.6447 10.1313 13.5377 10.2706 13.5755 10.4126L13.8141 11.3073C13.8402 11.4052 13.9289 11.4733 14.0302 11.4733H14.9987C15.1456 11.4733 15.2526 11.334 15.2148 11.192L14.9762 10.2974Z" fill="white"/>
<path d="M16.7655 17.4553C16.7394 17.3574 16.6507 17.2893 16.5494 17.2893H15.5809C15.434 17.2893 15.327 17.4286 15.3648 17.5706L15.6034 18.4652C15.6295 18.5631 15.7182 18.6313 15.8195 18.6313H16.788C16.9349 18.6313 17.042 18.492 17.0041 18.35L16.7655 17.4553Z" fill="white"/>
<path d="M10.5026 10.2974C10.4765 10.1995 10.3878 10.1313 10.2865 10.1313H9.318C9.17105 10.1313 9.06403 10.2706 9.10189 10.4126L9.34046 11.3073C9.36657 11.4052 9.45524 11.4733 9.55657 11.4733H10.525C10.672 11.4733 10.779 11.334 10.7412 11.192L10.5026 10.2974Z" fill="white"/>
<path d="M12.2919 17.4553C12.2658 17.3574 12.1771 17.2893 12.0758 17.2893H11.1073C10.9604 17.2893 10.8533 17.4286 10.8912 17.5706L11.1298 18.4652C11.1559 18.5631 11.2445 18.6313 11.3459 18.6313H12.3144C12.4613 18.6313 12.5683 18.492 12.5305 18.35L12.2919 17.4553Z" fill="white"/>
<path d="M15.4235 12.0867C15.3974 11.9888 15.3087 11.9207 15.2074 11.9207H14.2389C14.0919 11.9207 13.9849 12.06 14.0228 12.2019L14.2614 13.0966C14.2875 13.1945 14.3761 13.2626 14.4775 13.2626H15.4459C15.5929 13.2626 15.6999 13.1233 15.6621 12.9813L15.4235 12.0867Z" fill="white"/>
<path d="M17.213 19.2445C17.1869 19.1466 17.0983 19.0785 16.9969 19.0785H16.0285C15.8815 19.0785 15.7745 19.2178 15.8123 19.3598L16.0509 20.2544C16.077 20.3523 16.1657 20.4205 16.267 20.4205H17.2355C17.3824 20.4205 17.4895 20.2812 17.4516 20.1392L17.213 19.2445Z" fill="white"/>
<path d="M10.9498 12.0867C10.9237 11.9888 10.8351 11.9207 10.7337 11.9207H9.76527C9.61832 11.9207 9.51129 12.06 9.54916 12.2019L9.78773 13.0966C9.81384 13.1945 9.90251 13.2626 10.0038 13.2626H10.9723C11.1193 13.2626 11.2263 13.1233 11.1884 12.9813L10.9498 12.0867Z" fill="white"/>
<path d="M12.7394 19.2445C12.7133 19.1466 12.6246 19.0785 12.5233 19.0785H11.5548C11.4079 19.0785 11.3008 19.2178 11.3387 19.3598L11.5773 20.2544C11.6034 20.3523 11.6921 20.4205 11.7934 20.4205H12.7619C12.9088 20.4205 13.0158 20.2812 12.978 20.1392L12.7394 19.2445Z" fill="white"/>
<path d="M15.871 13.8759C15.8449 13.778 15.7562 13.7098 15.6549 13.7098H14.6864C14.5395 13.7098 14.4324 13.8491 14.4703 13.9911L14.7089 14.8858C14.735 14.9837 14.8237 15.0518 14.925 15.0518H15.8935C16.0404 15.0518 16.1474 14.9125 16.1096 14.7705L15.871 13.8759Z" fill="white"/>
<path d="M17.6603 21.0338C17.6342 20.9359 17.5455 20.8678 17.4442 20.8678H16.4757C16.3288 20.8678 16.2217 21.0071 16.2596 21.1491L16.4982 22.0437C16.5243 22.1416 16.613 22.2098 16.7143 22.2098H17.6828C17.8297 22.2098 17.9367 22.0705 17.8989 21.9285L17.6603 21.0338Z" fill="white"/>
<path d="M11.3971 13.8759C11.371 13.778 11.2823 13.7098 11.181 13.7098H10.2125C10.0656 13.7098 9.95856 13.8491 9.99642 13.9911L10.235 14.8858C10.2611 14.9837 10.3498 15.0518 10.4511 15.0518H11.4196C11.5665 15.0518 11.6735 14.9125 11.6357 14.7705L11.3971 13.8759Z" fill="white"/>
<path d="M13.1867 21.0338C13.1606 20.9359 13.0719 20.8678 12.9706 20.8678H12.0021C11.8551 20.8678 11.7481 21.0071 11.786 21.1491L12.0245 22.0437C12.0507 22.1416 12.1393 22.2098 12.2407 22.2098H13.2091C13.3561 22.2098 13.4631 22.0705 13.4252 21.9285L13.1867 21.0338Z" fill="white"/>
<path d="M13.1867 12.0867C13.1606 11.9888 13.0719 11.9207 12.9706 11.9207H12.0021C11.8551 11.9207 11.7481 12.06 11.786 12.2019L12.0245 13.0966C12.0507 13.1945 12.1393 13.2626 12.2407 13.2626H13.2091C13.3561 13.2626 13.4631 13.1233 13.4252 12.9813L13.1867 12.0867Z" fill="white"/>
<path d="M14.9762 19.2445C14.9501 19.1466 14.8614 19.0785 14.7601 19.0785H13.7916C13.6447 19.0785 13.5377 19.2178 13.5755 19.3598L13.8141 20.2544C13.8402 20.3523 13.9289 20.4205 14.0302 20.4205H14.9987C15.1456 20.4205 15.2526 20.2812 15.2148 20.1392L14.9762 19.2445Z" fill="white"/>
<path d="M8.71303 12.0867C8.68692 11.9888 8.59825 11.9207 8.49692 11.9207H7.52845C7.3815 11.9207 7.27448 12.06 7.31234 12.2019L7.55091 13.0966C7.57702 13.1945 7.66569 13.2626 7.76702 13.2626H8.73549C8.88244 13.2626 8.98946 13.1233 8.9516 12.9813L8.71303 12.0867Z" fill="white"/>
<path d="M10.5026 19.2445C10.4765 19.1466 10.3878 19.0785 10.2865 19.0785H9.318C9.17105 19.0785 9.06403 19.2178 9.10189 19.3598L9.34046 20.2544C9.36657 20.3523 9.45524 20.4205 9.55657 20.4205H10.525C10.672 20.4205 10.779 20.2812 10.7412 20.1392L10.5026 19.2445Z" fill="white"/>
<path d="M13.6342 13.8759C13.6081 13.778 13.5194 13.7098 13.4181 13.7098H12.4496C12.3026 13.7098 12.1956 13.8491 12.2335 13.9911L12.4721 14.8858C12.4982 14.9837 12.5868 15.0518 12.6882 15.0518H13.6566C13.8036 15.0518 13.9106 14.9125 13.8727 14.7705L13.6342 13.8759Z" fill="#D9D9D9"/>
<path d="M15.4235 21.0338C15.3974 20.9359 15.3087 20.8678 15.2074 20.8678H14.2389C14.0919 20.8678 13.9849 21.0071 14.0228 21.1491L14.2614 22.0437C14.2875 22.1416 14.3761 22.2098 14.4775 22.2098H15.4459C15.5929 22.2098 15.6999 22.0705 15.6621 21.9285L15.4235 21.0338Z" fill="#D9D9D9"/>
<path d="M9.1603 13.8759C9.13419 13.778 9.04552 13.7098 8.94419 13.7098H7.97572C7.82876 13.7098 7.72174 13.8491 7.75961 13.9911L7.99818 14.8858C8.02429 14.9837 8.11296 15.0518 8.21429 15.0518H9.18276C9.32971 15.0518 9.43673 14.9125 9.39887 14.7705L9.1603 13.8759Z" fill="#D9D9D9"/>
<path d="M10.9498 21.0338C10.9237 20.9359 10.8351 20.8678 10.7337 20.8678H9.76527C9.61832 20.8678 9.51129 21.0071 9.54916 21.1491L9.78773 22.0437C9.81384 22.1416 9.90251 22.2098 10.0038 22.2098H10.9723C11.1193 22.2098 11.2263 22.0705 11.1884 21.9285L10.9498 21.0338Z" fill="#D9D9D9"/>
<path d="M18.5731 23.7382C18.4167 23.6178 18.2249 23.5526 18.0276 23.5526H11.6573C10.8029 23.5526 10.4346 24.6356 11.1117 25.1565C11.2681 25.2769 11.4599 25.3421 11.6573 25.3421H18.0276C18.8819 25.3421 19.2503 24.2591 18.5731 23.7382Z" fill="white"/>
<path d="M23.7348 12.8158H17.1344C16.3133 12.8158 15.5975 13.3746 15.3983 14.1713L11.372 30.2765C11.0897 31.4059 11.9439 32.5 13.1081 32.5H19.7085C20.5296 32.5 21.2453 31.9412 21.4445 31.1445L25.4708 15.0393C25.7532 13.9099 24.8989 12.8158 23.7348 12.8158Z" fill="black" stroke="black" stroke-width="0.447368"/>
<path d="M16.4982 14.3239C16.5243 14.226 16.6129 14.1578 16.7143 14.1578H17.6827C17.8297 14.1578 17.9367 14.2971 17.8988 14.4391L17.6603 15.3338C17.6342 15.4317 17.5455 15.4998 17.4442 15.4998H16.4757C16.3287 15.4998 16.2217 15.3605 16.2596 15.2185L16.4982 14.3239Z" fill="white"/>
<path d="M14.7086 21.4818C14.7347 21.3839 14.8234 21.3158 14.9247 21.3158H15.8932C16.0401 21.3158 16.1472 21.4551 16.1093 21.5971L15.8707 22.4917C15.8446 22.5896 15.7559 22.6578 15.6546 22.6578H14.6861C14.5392 22.6578 14.4322 22.5185 14.47 22.3765L14.7086 21.4818Z" fill="white"/>
<path d="M20.9718 14.3239C20.9979 14.226 21.0866 14.1578 21.1879 14.1578H22.1564C22.3033 14.1578 22.4103 14.2971 22.3725 14.4391L22.1339 15.3338C22.1078 15.4317 22.0191 15.4998 21.9178 15.4998H20.9493C20.8024 15.4998 20.6953 15.3605 20.7332 15.2185L20.9718 14.3239Z" fill="white"/>
<path d="M19.1822 21.4818C19.2083 21.3839 19.297 21.3158 19.3983 21.3158H20.3668C20.5138 21.3158 20.6208 21.4551 20.5829 21.5971L20.3444 22.4917C20.3182 22.5896 20.2296 22.6578 20.1282 22.6578H19.1598C19.0128 22.6578 18.9058 22.5185 18.9437 22.3765L19.1822 21.4818Z" fill="white"/>
<path d="M18.735 14.3239C18.7611 14.226 18.8497 14.1578 18.9511 14.1578H19.9195C20.0665 14.1578 20.1735 14.2971 20.1357 14.4391L19.8971 15.3338C19.871 15.4317 19.7823 15.4998 19.681 15.4998H18.7125C18.5656 15.4998 18.4585 15.3605 18.4964 15.2185L18.735 14.3239Z" fill="white"/>
<path d="M16.9454 21.4818C16.9715 21.3839 17.0602 21.3158 17.1615 21.3158H18.13C18.2769 21.3158 18.384 21.4551 18.3461 21.5971L18.1075 22.4917C18.0814 22.5896 17.9928 22.6578 17.8914 22.6578H16.923C16.776 22.6578 16.669 22.5185 16.7068 22.3765L16.9454 21.4818Z" fill="white"/>
<path d="M23.2086 14.3239C23.2347 14.226 23.3234 14.1578 23.4247 14.1578H24.3932C24.5401 14.1578 24.6472 14.2971 24.6093 14.4391L24.3707 15.3338C24.3446 15.4317 24.2559 15.4998 24.1546 15.4998H23.1861C23.0392 15.4998 22.9322 15.3605 22.97 15.2185L23.2086 14.3239Z" fill="white"/>
<path d="M21.419 21.4818C21.4452 21.3839 21.5338 21.3158 21.6352 21.3158H22.6036C22.7506 21.3158 22.8576 21.4551 22.8197 21.5971L22.5812 22.4917C22.5551 22.5896 22.4664 22.6578 22.3651 22.6578H21.3966C21.2496 22.6578 21.1426 22.5185 21.1805 22.3765L21.419 21.4818Z" fill="white"/>
<path d="M18.2857 16.1132C18.3119 16.0153 18.4005 15.9471 18.5019 15.9471H19.4703C19.6173 15.9471 19.7243 16.0864 19.6864 16.2284L19.4479 17.1231C19.4218 17.221 19.3331 17.2891 19.2318 17.2891H18.2633C18.1163 17.2891 18.0093 17.1498 18.0472 17.0078L18.2857 16.1132Z" fill="white"/>
<path d="M16.4962 23.2711C16.5223 23.1732 16.611 23.1051 16.7123 23.1051H17.6808C17.8277 23.1051 17.9348 23.2444 17.8969 23.3864L17.6583 24.281C17.6322 24.3789 17.5435 24.4471 17.4422 24.4471H16.4737C16.3268 24.4471 16.2198 24.3078 16.2576 24.1658L16.4962 23.2711Z" fill="white"/>
<path d="M22.7594 16.1132C22.7855 16.0153 22.8742 15.9471 22.9755 15.9471H23.944C24.0909 15.9471 24.1979 16.0864 24.1601 16.2284L23.9215 17.1231C23.8954 17.221 23.8067 17.2891 23.7054 17.2891H22.7369C22.59 17.2891 22.4829 17.1498 22.5208 17.0078L22.7594 16.1132Z" fill="white"/>
<path d="M20.9701 23.2711C20.9962 23.1732 21.0849 23.1051 21.1862 23.1051H22.1547C22.3016 23.1051 22.4086 23.2444 22.3708 23.3864L22.1322 24.281C22.1061 24.3789 22.0174 24.4471 21.9161 24.4471H20.9476C20.8007 24.4471 20.6936 24.3078 20.7315 24.1658L20.9701 23.2711Z" fill="white"/>
<path d="M16.0506 16.1132C16.0768 16.0153 16.1654 15.9471 16.2667 15.9471H17.2352C17.3822 15.9471 17.4892 16.0864 17.4513 16.2284L17.2128 17.1231C17.1867 17.221 17.098 17.2891 16.9967 17.2891H16.0282C15.8812 17.2891 15.7742 17.1498 15.8121 17.0078L16.0506 16.1132Z" fill="white"/>
<path d="M14.2613 23.2711C14.2874 23.1732 14.3761 23.1051 14.4774 23.1051H15.4459C15.5929 23.1051 15.6999 23.2444 15.662 23.3864L15.4235 24.281C15.3973 24.3789 15.3087 24.4471 15.2073 24.4471H14.2389C14.0919 24.4471 13.9849 24.3078 14.0228 24.1658L14.2613 23.2711Z" fill="white"/>
<path d="M20.5243 16.1132C20.5504 16.0153 20.6391 15.9471 20.7404 15.9471H21.7089C21.8558 15.9471 21.9628 16.0864 21.925 16.2284L21.6864 17.1231C21.6603 17.221 21.5716 17.2891 21.4703 17.2891H20.5018C20.3549 17.2891 20.2478 17.1498 20.2857 17.0078L20.5243 16.1132Z" fill="white"/>
<path d="M18.735 23.2711C18.7611 23.1732 18.8497 23.1051 18.9511 23.1051H19.9195C20.0665 23.1051 20.1735 23.2444 20.1357 23.3864L19.8971 24.281C19.871 24.3789 19.7823 24.4471 19.681 24.4471H18.7125C18.5656 24.4471 18.4585 24.3078 18.4964 24.1658L18.735 23.2711Z" fill="white"/>
<path d="M15.6034 17.9025C15.6295 17.8046 15.7182 17.7365 15.8195 17.7365H16.788C16.9349 17.7365 17.0419 17.8757 17.0041 18.0177L16.7655 18.9124C16.7394 19.0103 16.6507 19.0784 16.5494 19.0784H15.5809C15.434 19.0784 15.3269 18.9391 15.3648 18.7971L15.6034 17.9025Z" fill="white"/>
<path d="M13.8138 25.0603C13.8399 24.9624 13.9286 24.8943 14.0299 24.8943H14.9984C15.1454 24.8943 15.2524 25.0336 15.2145 25.1756L14.9759 26.0702C14.9498 26.1681 14.8612 26.2362 14.7598 26.2362H13.7914C13.6444 26.2362 13.5374 26.0969 13.5753 25.955L13.8138 25.0603Z" fill="white"/>
<path d="M20.077 17.9025C20.1031 17.8046 20.1918 17.7365 20.2931 17.7365H21.2616C21.4085 17.7365 21.5156 17.8757 21.4777 18.0177L21.2391 18.9124C21.213 19.0103 21.1243 19.0784 21.023 19.0784H20.0545C19.9076 19.0784 19.8006 18.9391 19.8384 18.7971L20.077 17.9025Z" fill="white"/>
<path d="M18.2875 25.0603C18.3136 24.9624 18.4022 24.8943 18.5036 24.8943H19.472C19.619 24.8943 19.726 25.0336 19.6881 25.1756L19.4496 26.0702C19.4235 26.1681 19.3348 26.2362 19.2335 26.2362H18.265C18.118 26.2362 18.011 26.0969 18.0489 25.955L18.2875 25.0603Z" fill="white"/>
<path d="M15.1559 19.6917C15.182 19.5938 15.2706 19.5256 15.372 19.5256H16.3404C16.4874 19.5256 16.5944 19.6649 16.5566 19.8069L16.318 20.7016C16.2919 20.7995 16.2032 20.8676 16.1019 20.8676H15.1334C14.9865 20.8676 14.8794 20.7283 14.9173 20.5863L15.1559 19.6917Z" fill="white"/>
<path d="M13.3666 26.8496C13.3927 26.7517 13.4813 26.6836 13.5827 26.6836H14.5511C14.6981 26.6836 14.8051 26.8229 14.7672 26.9649L14.5287 27.8595C14.5026 27.9574 14.4139 28.0256 14.3126 28.0256H13.3441C13.1971 28.0256 13.0901 27.8863 13.128 27.7443L13.3666 26.8496Z" fill="white"/>
<path d="M19.6297 19.6917C19.6559 19.5938 19.7445 19.5256 19.8459 19.5256H20.8143C20.9613 19.5256 21.0683 19.6649 21.0304 19.8069L20.7919 20.7016C20.7658 20.7995 20.6771 20.8676 20.5758 20.8676H19.6073C19.4603 20.8676 19.3533 20.7283 19.3912 20.5863L19.6297 19.6917Z" fill="white"/>
<path d="M17.8402 26.8496C17.8663 26.7517 17.955 26.6836 18.0563 26.6836H19.0248C19.1717 26.6836 19.2787 26.8229 19.2409 26.9649L19.0023 27.8595C18.9762 27.9574 18.8875 28.0256 18.7862 28.0256H17.8177C17.6708 28.0256 17.5638 27.8863 17.6016 27.7443L17.8402 26.8496Z" fill="white"/>
<path d="M17.8402 17.9025C17.8663 17.8046 17.955 17.7365 18.0563 17.7365H19.0248C19.1717 17.7365 19.2787 17.8757 19.2409 18.0177L19.0023 18.9124C18.9762 19.0103 18.8875 19.0784 18.7862 19.0784H17.8177C17.6708 19.0784 17.5638 18.9391 17.6016 18.7971L17.8402 17.9025Z" fill="white"/>
<path d="M16.0506 25.0603C16.0768 24.9624 16.1654 24.8943 16.2667 24.8943H17.2352C17.3822 24.8943 17.4892 25.0336 17.4513 25.1756L17.2128 26.0702C17.1867 26.1681 17.098 26.2362 16.9967 26.2362H16.0282C15.8812 26.2362 15.7742 26.0969 15.8121 25.955L16.0506 25.0603Z" fill="white"/>
<path d="M22.3138 17.9025C22.3399 17.8046 22.4286 17.7365 22.5299 17.7365H23.4984C23.6454 17.7365 23.7524 17.8757 23.7145 18.0177L23.4759 18.9124C23.4498 19.0103 23.3612 19.0784 23.2598 19.0784H22.2914C22.1444 19.0784 22.0374 18.9391 22.0753 18.7971L22.3138 17.9025Z" fill="white"/>
<path d="M20.5243 25.0603C20.5504 24.9624 20.6391 24.8943 20.7404 24.8943H21.7089C21.8558 24.8943 21.9628 25.0336 21.925 25.1756L21.6864 26.0702C21.6603 26.1681 21.5716 26.2362 21.4703 26.2362H20.5018C20.3549 26.2362 20.2478 26.0969 20.2857 25.955L20.5243 25.0603Z" fill="white"/>
<path d="M17.3927 19.6917C17.4188 19.5938 17.5075 19.5256 17.6088 19.5256H18.5773C18.7242 19.5256 18.8312 19.6649 18.7934 19.8069L18.5548 20.7016C18.5287 20.7995 18.44 20.8676 18.3387 20.8676H17.3702C17.2233 20.8676 17.1162 20.7283 17.1541 20.5863L17.3927 19.6917Z" fill="#D9D9D9"/>
<path d="M15.6034 26.8496C15.6295 26.7517 15.7182 26.6836 15.8195 26.6836H16.788C16.9349 26.6836 17.0419 26.8229 17.0041 26.9649L16.7655 27.8595C16.7394 27.9574 16.6507 28.0256 16.5494 28.0256H15.5809C15.434 28.0256 15.3269 27.8863 15.3648 27.7443L15.6034 26.8496Z" fill="#D9D9D9"/>
<path d="M21.8666 19.6917C21.8927 19.5938 21.9813 19.5256 22.0827 19.5256H23.0511C23.1981 19.5256 23.3051 19.6649 23.2672 19.8069L23.0287 20.7016C23.0026 20.7995 22.9139 20.8676 22.8126 20.8676H21.8441C21.6971 20.8676 21.5901 20.7283 21.628 20.5863L21.8666 19.6917Z" fill="#D9D9D9"/>
<path d="M20.077 26.8496C20.1031 26.7517 20.1918 26.6836 20.2931 26.6836H21.2616C21.4085 26.6836 21.5156 26.8229 21.4777 26.9649L21.2391 27.8595C21.213 27.9574 21.1243 28.0256 21.023 28.0256H20.0545C19.9076 28.0256 19.8006 27.8863 19.8384 27.7443L20.077 26.8496Z" fill="#D9D9D9"/>
<path d="M12.4538 29.554C12.6102 29.4336 12.802 29.3684 12.9993 29.3684H19.3696C20.2239 29.3684 20.5923 30.4514 19.9151 30.9723C19.7587 31.0926 19.5669 31.1579 19.3696 31.1579H12.9993C12.1449 31.1579 11.7766 30.0749 12.4538 29.554Z" fill="white"/>
</svg>
