<svg width="31" height="39" viewBox="0 0 31 39" fill="none" xmlns="http://www.w3.org/2000/svg">
<g clip-path="url(#clip0_1_1186)">
<rect width="31" height="39" rx="7" fill="white"/>
<rect x="5" y="5" width="15" height="28" rx="2" fill="black"/>
<path d="M19.9513 30.3109H5V31.5406C5 33.5081 6.66126 34 7.49188 34H17.9578C19.9513 34 20.1174 31.5406 19.9513 30.3109Z" fill="white" stroke="black" stroke-width="0.1"/>
<path d="M24.1216 27.1945L26.1448 30.4316C26.3753 30.8004 26.4793 31.2344 26.441 31.6677L25.5915 41.2777C25.5544 41.6971 25.3387 42.0804 24.9994 42.3298C24.043 43.0326 22.6915 42.3668 22.6659 41.1802L22.5195 34.4011C22.5071 33.8281 22.2499 33.2886 21.8157 32.9145C20.7998 32.0392 18.9182 30.3934 18.0405 29.4669C17.7652 29.1763 17.6427 28.786 17.6421 28.3856L17.6421 28.3691L18.5424 27.4843L19.3136 26.7265L20.0847 25.9686C19.5563 25.4216 18.9988 24.7717 18.5163 24.0625C17.849 23.0817 17.92 22.5381 18.2183 22.2586C18.6045 21.8966 19.1945 22.2098 19.5694 22.5835L23.8376 26.8381C23.9456 26.9457 24.0409 27.0653 24.1216 27.1945Z" fill="#FFCB9A"/>
<path d="M20.0847 25.9686C19.5563 25.4216 18.9988 24.7717 18.5163 24.0625C17.849 23.0817 17.92 22.5381 18.2183 22.2586C18.6045 21.8966 19.1945 22.2098 19.5694 22.5835L23.8376 26.8381C23.9456 26.9457 24.0409 27.0653 24.1216 27.1945L26.1448 30.4316C26.3753 30.8004 26.4793 31.2344 26.441 31.6677L25.5915 41.2777C25.5544 41.6971 25.3387 42.0804 24.9994 42.3298V42.3298C24.043 43.0326 22.6915 42.3668 22.6659 41.1802L22.5195 34.4011C22.5071 33.8281 22.2499 33.2886 21.8157 32.9145C20.7998 32.0392 18.9182 30.3934 18.0405 29.4669C17.7652 29.1763 17.6427 28.786 17.6421 28.3856L17.6421 28.3691M20.0847 25.9686C20.7857 26.6942 21.4355 27.2387 21.7913 27.5L20.0847 25.9686ZM20.0847 25.9686L19.3136 26.7265M18.5424 27.4843L20.0847 29M18.5424 27.4843L19.3136 26.7265M18.5424 27.4843L17.6421 28.3691M19.3136 26.7265L21.0001 28.3691M17.6421 28.3691L19.0001 29.5" stroke="black" stroke-width="0.2"/>
<circle cx="13" cy="32" r="1" fill="black"/>
<g clip-path="url(#clip1_1_1186)">
<circle cx="8.1" cy="8.1" r="1.1" fill="white"/>
<circle cx="12.3" cy="8.1" r="1.1" fill="white"/>
<circle cx="16.4999" cy="8.1" r="1.1" fill="white"/>
<circle cx="8.1" cy="12.3" r="1.1" fill="white"/>
<circle cx="12.3" cy="12.3" r="1.1" fill="white"/>
<circle cx="16.4999" cy="12.3" r="1.1" fill="white"/>
<circle cx="8.1" cy="16.5" r="1.1" fill="white"/>
<circle cx="12.3" cy="16.5" r="1.1" fill="white"/>
<circle cx="16.4999" cy="16.5" r="1.1" fill="white"/>
<circle cx="8.1" cy="20.7" r="1.1" fill="white"/>
<circle cx="12.3" cy="20.7" r="1.1" fill="white"/>
<circle cx="16.4999" cy="20.7" r="1.1" fill="white"/>
<circle cx="8.1" cy="24.9" r="1.1" fill="white"/>
<circle cx="12.3" cy="24.9" r="1.1" fill="white"/>
<circle cx="16.4999" cy="24.9" r="1.1" fill="white"/>
</g>
</g>
<defs>
<clipPath id="clip0_1_1186">
<rect width="31" height="39" rx="7" fill="white"/>
</clipPath>
<clipPath id="clip1_1_1186">
<rect width="11" height="20" fill="white" transform="translate(7 7)"/>
</clipPath>
</defs>
</svg>
