<svg width="31" height="39" viewBox="0 0 31 39" fill="none" xmlns="http://www.w3.org/2000/svg">
<rect width="31" height="39" rx="7" fill="white"/>
<path d="M4.85 20.65V11.35H25.15V20.65H4.85Z" fill="#9F9C9C" stroke="black" stroke-width="0.7"/>
<path d="M15 21V24.5" stroke="black" stroke-width="2"/>
<path d="M22.5 24.5H7.5L5 27.5H26L22.5 24.5Z" fill="black" stroke="black" stroke-width="0.5"/>
<path d="M15 12.6667V9C15 8.44772 14.5523 8 14 8H8C7.44772 8 7 8.44772 7 9V15C7 15.5523 7.44772 16 8 16H14C14.5523 16 15 15.5523 15 15V12.6667Z" fill="black"/>
<path d="M23 19.9167V18C23 17.4477 22.5523 17 22 17H21C20.4477 17 20 17.4477 20 18V21C20 21.5523 20.4477 22 21 22H22C22.5523 22 23 21.5523 23 21V19.9167Z" fill="black"/>
<path d="M28 12.9167V11C28 10.4477 27.5523 10 27 10H24C23.4477 10 23 10.4477 23 11V14C23 14.5523 23.4477 15 24 15H27C27.5523 15 28 14.5523 28 14V12.9167Z" fill="black"/>
</svg>
